Coordinates
version=1
nRows=14
nColumns=24
inDegrees=yes

Units are S.I. units (second, meters, Newtons, ...)
Angles are in degrees.

endheader
time	pelvis_tilt	pelvis_list	pelvis_rotation	pelvis_tx	pelvis_ty	pelvis_tz	hip_flexion_r	hip_adduction_r	hip_rotation_r	knee_angle_r	ankle_angle_r	subtalar_angle_r	mtp_angle_r	hip_flexion_l	hip_adduction_l	hip_rotation_l	knee_angle_l	ankle_angle_l	subtalar_angle_l	mtp_angle_l	lumbar_extension	lumbar_bending	lumbar_rotation
      3.94000000	      2.82325247	     -5.43373094	     -5.76747703	     -0.49219927	      0.91859829	     -0.14565198	    -19.17253462	      9.11849795	      4.78332975	     -4.73422104	     20.79145177	      3.84353812	      0.00000000	     14.85383054	     -3.46267895	     -7.72703683	      3.25195571	      6.64597421	      3.49505380	      0.00000000	    -27.35376765	      1.03661179	      3.89809088
      3.95000000	      2.95320298	     -5.30467743	     -5.85530982	     -0.48041481	      0.91842378	     -0.14592294	    -19.45673672	      8.82756926	      4.45952410	     -5.86420652	     20.58780842	      4.27748750	      0.00000000	     14.63877580	     -3.17999272	     -8.11242832	      2.16657002	      6.57895075	      2.74147096	      0.00000000	    -27.42925234	      0.88573318	      3.91699066
      3.96000000	      3.11649052	     -5.16514203	     -5.88713881	     -0.46830921	      0.91841583	     -0.14636889	    -19.66603874	      8.51306989	      3.75159809	     -7.20535170	     20.35648646	      5.05026191	      0.00000000	     14.23628506	     -2.85239025	     -8.03182808	      1.24552602	      6.22213474	      1.61416160	      0.00000000	    -27.48800739	      0.75530099	      3.86445367
      3.97000000	      3.24772683	     -4.93575384	     -5.98780089	     -0.45582715	      0.91859021	     -0.14681757	    -19.80701319	      8.05960886	      3.20192742	     -8.61418987	     19.91772015	      5.71391081	      0.00000000	     13.65845021	     -2.42300274	     -7.64685740	      0.66210983	      5.50082862	      0.17658716	      0.00000000	    -27.42105670	      0.50886933	      3.87812734
      3.98000000	      3.39660340	     -4.61579487	     -6.07498556	     -0.44305733	      0.91902295	     -0.14738340	    -19.88732028	      7.48343838	      2.59756983	    -10.14727662	     19.29305841	      6.42233593	      0.00000000	     12.90047222	     -1.86802853	     -6.99405313	      0.41827073	      4.51077863	     -1.40712104	      0.00000000	    -27.30847237	      0.17514463	      3.86865663
      3.99000000	      3.54781172	     -4.22494300	     -6.16076353	     -0.43005994	      0.91974988	     -0.14801914	    -19.85998036	      6.80121685	      1.92162532	    -11.85341995	     18.42690596	      7.21066045	      0.00000000	     12.00979384	     -1.22820687	     -6.16715786	      0.46977857	      3.34292649	     -2.99694570	      0.00000000	    -27.13964155	     -0.22797465	      3.82169169
      4.00000000	      3.70689696	     -3.78486716	     -6.19773593	     -0.41694491	      0.92076548	     -0.14874040	    -19.71216035	      6.05253185	      1.17588930	    -13.75154079	     17.27112194	      8.04092320	      0.00000000	     11.05761221	     -0.53834520	     -5.15801228	      0.66273754	      2.09510732	     -4.56056938	      0.00000000	    -26.94858960	     -0.66905099	      3.71558480
      4.01000000	      3.85847389	     -3.32634068	     -6.19825887	     -0.40375138	      0.92205037	     -0.14951203	    -19.41875832	      5.26718677	      0.43294353	    -15.85412218	     15.75640223	      8.89446816	      0.00000000	     10.13084879	      0.15275046	     -4.15016809	      0.81925634	      0.93827552	     -5.93193437	      0.00000000	    -26.71976148	     -1.11486471	      3.57004887
      4.02000000	      3.99913661	     -2.88467518	     -6.12084701	     -0.39063430	      0.92355021	     -0.15033995	    -18.95758832	      4.50859292	     -0.25698379	    -18.17773464	     13.84627770	      9.66981015	      0.00000000	      9.27563344	      0.79985279	     -3.07475276	      0.83536535	     -0.08961821	     -7.14001342	      0.00000000	    -26.49211453	     -1.52154829	      3.35698176
      4.03000000	      4.08782584	     -2.38893815	     -6.02366838	     -0.37759847	      0.92517886	     -0.15106745	    -18.26792720	      3.71173420	     -0.77316635	    -20.73764660	     11.59913761	     10.31139131	      0.00000000	      8.59188345	      1.46400836	     -2.31815963	      0.59570444	     -0.81758687	     -7.80425862	      0.00000000	    -26.20315823	     -2.00968257	      3.09271836
      4.04000000	      4.13527097	     -2.10875656	     -5.82475609	     -0.36496176	      0.92683660	     -0.15201267	    -17.34819643	      3.17411401	     -1.10588319	    -23.54489441	      8.90583703	     10.77996924	      0.00000000	      7.94328060	      1.87800549	     -1.07227092	      0.32061675	     -1.54545265	     -8.87692685	      0.00000000	    -25.96777694	     -2.18728698	      2.87913387
      4.05000000	      4.14814244	     -1.71260432	     -5.65823613	     -0.35245363	      0.92844866	     -0.15283046	    -16.17793136	      2.53001863	     -1.28554685	    -26.62874644	      6.10019189	     11.19157460	      0.00000000	      7.44019916	      2.39605716	     -0.46360857	     -0.16730014	     -1.80897675	     -9.17198351	      0.00000000	    -25.68174109	     -2.52686300	      2.61567014
      4.06000000	      4.00725925	     -1.39402459	     -5.53032101	     -0.34042186	      0.92977172	     -0.15357957	    -14.60890321	      2.02465969	     -1.18218980	    -30.00106285	      3.19794125	     11.33902476	      0.00000000	      7.08238417	      2.79327249	      0.26481453	     -0.62196913	     -1.96589312	     -9.58632351	      0.00000000	    -25.31143833	     -2.77747606	      2.42697679
      4.07000000	      3.82283289	     -1.01675456	     -5.46444780	     -0.32868791	      0.93081514	     -0.15417784	    -12.77768718	      1.50572565	     -0.90238152	    -33.61975529	      0.40542555	     11.28433864	      0.00000000	      6.72864519	      3.23977878	      0.90589696	     -0.97310571	     -1.99066812	     -9.98798396	      0.00000000	    -24.91951466	     -3.12153136	      2.25897777
